<?xml version="1.0" encoding="UTF-8"?>
<svg id="Layer_1" xmlns="http://www.w3.org/2000/svg" version="1.1" viewBox="0 0 16 16">
  <!-- Generator: Adobe Illustrator 30.0.0, SVG Export Plug-In . SVG Version: 2.1.1 Build 123)  -->
  <defs>
    <style>
      .st0 {
        fill: #dfff00;
      }
    </style>
  </defs>
  <circle class="st0" cx="8" cy="8" r="5.2"/>
  <g>
    <path d="M8,2.8c-2.87,0-5.2,2.33-5.2,5.2s2.33,5.2,5.2,5.2,5.2-2.33,5.2-5.2-2.33-5.2-5.2-5.2h0ZM8,12.94c-2.73,0-4.94-2.22-4.94-4.94s2.22-4.94,4.94-4.94,4.94,2.22,4.94,4.94-2.22,4.94-4.94,4.94Z"/>
    <path d="M6.04,7.02c.06-.08.09-.2.08-.36v-.77c0-.13-.04-.22-.09-.29-.06-.06-.15-.1-.26-.1h-.45v1.64h.44c.13,0,.23-.04.28-.12h0ZM5.64,6.85v-1.06h.04s.06,0,.07,0c.02,0,.03.02.03.04s0,.05,0,.08v.84c0,.06-.03.09-.09.09h-.06,0Z"/>
    <path d="M7.53,6.88h.2l.02.27h.31l-.16-1.64h-.56l-.16,1.64h.32l.02-.27h0ZM7.61,5.78h.02l.07.83h-.15l.06-.83Z"/>
    <path d="M10.84,7.16c.28,0,.41-.14.41-.41v-.31h-.33v.3c0,.08-.03.12-.08.12-.03,0-.04,0-.06-.03s-.02-.05-.02-.09v-.82s0-.07.02-.09c.01-.02.03-.03.06-.03s.05,0,.06.03c.01.02.02.05.02.1v.24h.33v-.28c0-.12-.04-.22-.11-.29s-.17-.1-.29-.1c-.14,0-.24.04-.31.12-.06.08-.1.21-.1.37v.76c0,.13.04.23.11.31.07.07.17.11.29.11h0Z"/>
    <polygon points="9.93 6.4 10.24 6.4 10.24 6.08 9.93 6.08 9.93 5.82 10.25 5.82 10.25 5.5 9.6 5.5 9.6 7.14 9.93 7.14 9.93 6.4"/>
    <path d="M8.64,7.16c.14,0,.23-.04.29-.12.06-.08.09-.21.09-.37,0-.07,0-.14-.03-.19-.02-.05-.04-.1-.07-.14s-.07-.08-.11-.12l-.19-.18c-.06-.06-.09-.11-.09-.17,0-.02,0-.04.02-.06.01-.01.03-.02.06-.02.02,0,.04,0,.05.02.01.01.02.03.02.05v.11h.34c0-.17-.03-.29-.1-.37s-.17-.12-.32-.12c-.12,0-.22.04-.28.11-.06.07-.1.18-.1.32,0,.13.05.25.16.35l.14.14c.05.05.09.09.11.11s.04.05.05.09c.01.04.02.08.02.13,0,.04,0,.07-.02.09s-.03.03-.06.03c-.05,0-.08-.04-.08-.12v-.2h-.32v.16c0,.16.03.28.1.36.07.07.17.11.32.11h0s0,0,0,0Z"/>
    <polygon points="7.03 6.82 6.68 6.82 6.68 6.45 6.99 6.45 6.99 6.14 6.68 6.14 6.68 5.82 7.01 5.82 7.01 5.5 6.35 5.5 6.35 7.14 7.03 7.14 7.03 6.82"/>
    <rect x="4.77" y="5.5" width=".32" height="1.64"/>
    <path d="M12.08,8.31c-.24-.16-.55-.2-.82-.11-.12.04-.18.15-.13.22.04.07.14.08.22.06.05-.02.1-.03.15-.03-.13.82-.55,1.59-1.18,2.14-1.7,1.52-4.44.98-5.46-1.05-.17-.34-.29-.7-.36-1.08.05,0,.1.01.15.03.08.02.18,0,.22-.06.04-.07,0-.18-.13-.22-.28-.09-.58-.05-.82.11-.11.07-.13.19-.07.25.06.05.16.04.23,0,.05-.03.1-.05.15-.07.06.65.29,1.29.67,1.82,1.31,1.86,4.03,2.14,5.69.58.67-.62,1.11-1.49,1.18-2.4.05.02.1.04.15.07.07.04.17.05.23,0,.06-.05.04-.18-.07-.25h0,0Z"/>
  </g>
</svg>